#!OML:ASF X:\für Bonn\!DataBase\2005_08_12_Daniel\c3d\Daniel.ASF
:FULLY-SPECIFIED
:DEGREES
94
root -16.3672 16.65 22.3583 -170.895 75.6513 542.573
lowerback 13.8715 -0.51817 0.249316
upperback 2.86786 -0.602118 -2.14625
thorax -4.77544 -0.239828 -2.29589
lowerneck -2.2076 6.1758 2.05405
upperneck -3.07941 8.27933 -12.9316
head 0.103379 4.2645 -4.50659
rclavicle -3.57812e-015 1.27222e-014
rhumerus -44.6246 17.5703 -101.511
rradius 97.8078
rwrist -1.06997
rhand -30.6108 30.5919
rfingers 7.12502
rthumb -3.90728 0.648011
lclavicle -3.57812e-015 1.27222e-014
lhumerus -67.1871 -6.33361 98.0426
lradius 87.2984
lwrist 23.4831
lhand -12.3841 -7.74654
lfingers 7.12502
lthumb 13.6868 21.7834
rfemur -1.71175 3.92926 16.7102
rtibia 40.6289
rfoot -28.7559 -7.85275
rtoes -26.9114
lfemur -35.1447 7.00347 -28.0559
ltibia 90.5587
lfoot -12.0172 -3.10375
ltoes -6.20407
95
root -16.1171 16.7602 22.2431 -171.555 75.2502 541.801
lowerback 13.7561 -0.193485 -0.066961
upperback 2.54698 -0.240346 -2.21775
thorax -5.03391 -0.0666539 -2.25734
lowerneck -2.19952 5.95169 1.69278
upperneck -2.70491 8.01135 -12.418
head 0.158887 4.11465 -4.25429
rclavicle 0 2.46493e-014
rhumerus -45.48 18.1494 -101.977
rradius 99.236
rwrist -1.11101
rhand -30.2363 30.9644
rfingers 7.12502
rthumb -3.54562 1.01419
lclavicle 0 2.46493e-014
lhumerus -68.5281 -6.3526 98.1995
lradius 88.3883
lwrist 23.0007
lhand -11.4968 -7.85394
lfingers 7.12502
lthumb 14.5418 21.6164
rfemur -0.503945 4.05039 16.5913
rtibia 39.35
rfoot -25.8073 -8.744
rtoes -26.4591
lfemur -36.1762 6.83828 -28.6913
ltibia 89.2763
lfoot -12.4229 -3.41298
ltoes -6.69741
96
root -15.865 16.8737 22.1262 -171.842 74.8225 541.385
lowerback 13.63 0.105933 -0.318332
upperback 2.21773 0.0978245 -2.27804
thorax -5.29899 0.0947216 -2.24049
lowerneck -2.14746 5.73444 1.2737
upperneck -2.40599 7.74542 -11.9023
head 0.18229 3.97128 -3.99596
rclavicle 3.71727e-014 7.95139e-016
rhumerus -46.5402 18.6352 -102.478
rradius 100.336
rwrist -1.07654
rhand -30.0491 31.653
rfingers 7.12502
rthumb -3.36488 1.69979
lclavicle 3.71727e-014 7.95139e-016
lhumerus -69.7862 -6.28308 98.2879
lradius 89.4108
lwrist 22.5028
lhand -10.8099 -8.09203
lfingers 7.12502
lthumb 15.2037 21.3294
rfemur 0.534319 4.03562 16.5076
rtibia 38.1927
rfoot -22.5206 -9.51596
rtoes -25.6749
lfemur -37.1383 6.67685 -29.2341
ltibia 87.7743
lfoot -12.7666 -3.7674
ltoes -7.38974
97
root -15.6114 16.9837 22.0088 -172.11 74.3515 541.017
lowerback 13.5288 0.354085 -0.651545
upperback 1.92161 0.361695 -2.27879
thorax -5.54822 0.223475 -2.10191
lowerneck -2.24061 5.56906 0.707079
upperneck -2.06142 7.56005 -11.3438
head 0.245733 3.8638 -3.68999
rclavicle -1.39149e-015 -1.27222e-014
rhumerus -47.4405 19.2795 -102.888
rradius 101.19
rwrist -1.1341
rhand -29.8717 32.2253
rfingers 7.12502
rthumb -3.19359 2.26947
lclavicle -1.39149e-015 -1.27222e-014
lhumerus -70.7054 -5.94497 98.2985
lradius 90.191
lwrist 22.092
lhand -10.1156 -8.47392
lfingers 7.12502
lthumb 15.8723 20.8955
rfemur 1.46858 3.91695 16.4142
rtibia 37.1957
rfoot -19.0467 -10.3042
rtoes -25.072
lfemur -37.9474 6.53076 -29.739
ltibia 86.0788
lfoot -13.0937 -4.17093
ltoes -7.89087
98
root -15.3553 17.0877 21.8884 -172.204 73.8882 540.838
lowerback 13.4014 0.583383 -0.93277
upperback 1.64376 0.608928 -2.31004
thorax -5.76641 0.344663 -2.02208
lowerneck -2.2481 5.41198 0.251347
upperneck -1.86111 7.36702 -10.8161
head 0.255714 3.75956 -3.42464
rclavicle 1.2921e-014 2.54444e-014
rhumerus -48.171 19.7854 -103.349
rradius 101.903
rwrist -1.11497
rhand -29.4987 32.5676
rfingers 7.12502
rthumb -2.83336 2.60669
lclavicle 1.2921e-014 2.54444e-014
lhumerus -71.4317 -5.60221 98.1138
lradius 90.8727
lwrist 21.7237
lhand -9.3913 -8.77268
lfingers 7.12502
lthumb 16.5697 20.5399
rfemur 2.32773 3.86449 16.3837
rtibia 36.3411
rfoot -15.5793 -11.1527
rtoes -24.2649
lfemur -38.5957 6.43057 -30.1921
ltibia 84.2288
lfoot -13.3814 -4.60624
ltoes -7.98208
99
root -15.0962 17.1871 21.7628 -172.406 73.3737 540.57
lowerback 13.2745 0.751333 -1.28004
upperback 1.38309 0.768375 -2.31809
thorax -5.97211 0.426156 -1.86478
lowerneck -2.30183 5.31302 -0.210078
upperneck -1.60707 7.25786 -10.2968
head 0.297686 3.69387 -3.15986
rclavicle -2.5842e-015 2.54444e-014
rhumerus -48.8867 20.5031 -103.833
rradius 102.36
rwrist -1.15745
rhand -29.3009 32.6746
rfingers 7.12502
rthumb -2.64226 2.71117
lclavicle -2.5842e-015 2.54444e-014
lhumerus -71.9484 -5.02008 97.8783
lradius 91.4296
lwrist 21.2596
lhand -8.79447 -9.05235
lfingers 7.12502
lthumb 17.1443 20.2113
rfemur 3.13132 3.80115 16.3263
rtibia 35.6596
rfoot -12.1007 -12.0565
rtoes -23.6225
lfemur -39.0754 6.25223 -30.693
ltibia 82.2212
lfoot -13.694 -4.92057
ltoes -7.96791
100
root -14.8333 17.2811 21.6348 -172.534 72.847 540.405
lowerback 13.1391 0.916453 -1.59869
upperback 1.15883 0.931344 -2.32819
thorax -6.13592 0.510594 -1.72604
lowerneck -2.42919 5.20193 -0.50204
upperneck -1.3464 7.13432 -9.90958
head 0.367126 3.61885 -2.97085
rclavicle -6.57977e-014 -1.19271e-014
rhumerus -49.5524 21.1214 -104.264
rradius 102.625
rwrist -1.06268
rhand -29.0782 32.8023
rfingers 7.12502
rthumb -2.42721 2.83637
lclavicle -6.57977e-014 -1.19271e-014
lhumerus -72.2255 -4.52672 97.5805
lradius 91.8545
lwrist 20.9329
lhand -8.35363 -9.25374
lfingers 7.12502
lthumb 17.5685 19.9725
rfemur 3.88736 3.79227 16.32
rtibia 35.133
rfoot -8.73391 -12.9945
rtoes -22.5324
lfemur -39.3889 6.0553 -31.1596
ltibia 80.0779
lfoot -14.0377 -5.17043
ltoes -7.93703
101
root -14.5717 17.3668 21.505 -172.575 72.2873 540.357
lowerback 12.9956 1.03997 -1.86043
upperback 0.98472 1.05132 -2.3397
thorax -6.24322 0.574101 -1.61216
lowerneck -2.64519 5.1249 -0.792091
upperneck -1.10938 7.05494 -9.46463
head 0.444569 3.56433 -2.76164
rclavicle 2.54444e-014 1.19271e-014
rhumerus -50.17 21.7948 -104.696
rradius 102.691
rwrist -0.937386
rhand -28.9614 32.8758
rfingers 7.12502
rthumb -2.31444 2.90864
lclavicle 2.54444e-014 1.19271e-014
lhumerus -72.2873 -3.85621 97.2221
lradius 92.2049
lwrist 20.6218
lhand -7.99063 -9.32839
lfingers 7.12502
lthumb 17.9179 19.8662
rfemur 4.56229 3.74908 16.3359
rtibia 34.77
rfoot -5.56616 -13.7872
rtoes -21.5243
lfemur -39.572 5.85934 -31.5806
ltibia 77.8229
lfoot -14.3712 -5.42716
ltoes -7.73457
102
root -14.3067 17.4457 21.374 -172.796 71.7353 540.179
lowerback 12.8835 1.1748 -2.1498
upperback 0.838298 1.1822 -2.39517
thorax -6.33925 0.644706 -1.5316
lowerneck -2.84935 5.03073 -0.902381
upperneck -0.843341 6.94909 -9.09521
head 0.538473 3.49527 -2.61185
rclavicle 1.31198e-014 1.59028e-015
rhumerus -50.7952 22.3197 -105.158
rradius 102.615
rwrist -0.690491
rhand -28.745 32.9802
rfingers 7.12502
rthumb -2.10541 3.01083
lclavicle 1.31198e-014 1.59028e-015
lhumerus -72.2586 -3.16062 96.8604
lradius 92.4762
lwrist 20.1792
lhand -7.79127 -9.30178
lfingers 7.12502
lthumb 18.1097 19.8752
rfemur 5.25511 3.61012 16.2743
rtibia 34.5068
rfoot -2.43511 -14.3111
rtoes -20.3703
lfemur -39.537 5.70095 -32.0292
ltibia 75.4293
lfoot -14.7765 -5.6049
ltoes -7.55052
103
root -14.0396 17.5181 21.2429 -172.875 71.1497 540.161
lowerback 12.7196 1.27316 -2.41004
upperback 0.763608 1.2769 -2.42527
thorax -6.33126 0.697894 -1.43095
lowerneck -3.12498 4.95852 -1.06627
upperneck -0.647822 6.87132 -8.71408
head 0.621219 3.44248 -2.44866
rclavicle 1.94809e-014 -5.56597e-015
rhumerus -51.3836 22.9033 -105.633
rradius 102.415
rwrist -0.430281
rhand -28.6786 33.2355
rfingers 7.12502
rthumb -2.04135 3.26554
lclavicle 1.94809e-014 -5.56597e-015
lhumerus -72.1181 -2.29128 96.4228
lradius 92.8403
lwrist 19.6839
lhand -7.72724 -9.22982
lfingers 7.12502
lthumb 18.1713 19.9414
rfemur 5.93964 3.53878 16.3176
rtibia 34.3333
rfoot 0.293149 -14.6628
rtoes -19.3081
lfemur -39.3813 5.68576 -32.4141
ltibia 72.9597
lfoot -15.2346 -5.63724
ltoes -8.17025
104
root -13.7681 17.5856 21.1068 -172.893 70.5608 540.262
lowerback 12.5371 1.34989 -2.6254
upperback 0.72446 1.35348 -2.44462
thorax -6.27495 0.741238 -1.33939
lowerneck -3.35244 4.89745 -1.23781
upperneck -0.506233 6.8033 -8.34959
head 0.67971 3.39845 -2.29288
rclavicle 9.68081e-014 -1.59028e-014
rhumerus -51.9894 23.4877 -106.118
rradius 102.237
rwrist -0.25606
rhand -28.4865 33.3042
rfingers 7.12502
rthumb -1.85577 3.3325
lclavicle 9.68081e-014 -1.59028e-014
lhumerus -72.1406 -1.31973 95.9286
lradius 93.4429
lwrist 19.3317
lhand -7.66563 -8.99924
lfingers 7.12502
lthumb 18.2305 20.1664
rfemur 6.66383 3.35021 16.3561
rtibia 34.2477
rfoot 2.58711 -14.588
rtoes -18.7536
lfemur -39.0758 5.77731 -32.7633
ltibia 70.3861
lfoot -15.7153 -5.46376
ltoes -9.03403
